<svg xmlns="http://www.w3.org/2000/svg" version="1.1" xmlns:xlink="http://www.w3.org/1999/xlink" width="1500" height="1500" viewBox="0 0 1500 1500"><rect width="1500" height="1500" x="0" y="0" id="background" stroke="transparent" fill="#d9bca9"></rect><svg xml:space="preserve" width="1000" height="1000" data-version="2" data-id="lg_4o7rwad8Ssvks32P92" viewBox="0 0 554 295" x="250" y="250"><rect width="100%" height="100%" fill="transparent"></rect><path fill="#c56e33" d="M5.45 212.75h4.48l8.64 17.36h-.32l8.64-17.36h4.36v25.12h-3.16v-21.88h.56l-9.2 18.72h-2.08l-9.16-18.6h.36v21.76H5.45Z"></path><rect width="25.8" height="25.12" x="-12.9" y="-12.56" fill="none" rx="0" ry="0" transform="translate(18.85 225.81)"></rect><path fill="#c56e33" d="M48.21 238.35q-3.12 0-5.58-1.44t-3.88-4.33q-1.42-2.89-1.42-7.23 0-4.4 1.42-7.29 1.42-2.89 3.88-4.32 2.46-1.43 5.58-1.43t5.58 1.44q2.46 1.44 3.88 4.34t1.42 7.26q0 4.38-1.42 7.27-1.42 2.89-3.88 4.31-2.46 1.42-5.58 1.42m0-2.88q3.54 0 5.59-2.58t2.05-7.58q0-4.9-2.05-7.55-2.05-2.65-5.59-2.65-3.5 0-5.57 2.66-2.07 2.66-2.07 7.58 0 4.98 2.07 7.55 2.07 2.57 5.57 2.57"></path><rect width="21.76" height="26.04" x="-10.88" y="-13.02" fill="none" rx="0" ry="0" transform="translate(48.71 225.83)"></rect><path fill="#c56e33" d="M65.11 212.75h3.72l12.76 20.68h-.28v-20.68h3.12v25.12h-3.48l-13.2-21.36h.48v21.36h-3.12Z"></path><rect width="19.32" height="25.12" x="-9.66" y="-12.56" fill="none" rx="0" ry="0" transform="translate(75.27 225.81)"></rect><path fill="#c56e33" d="m89.51 237.87 8.64-25.12h3.8l8.44 25.12h-3.28l-2.12-6.44h-10l-2.2 6.44Zm6.28-8.88h8.4l-4.2-12.44Z"></path><rect width="20.88" height="25.12" x="-10.44" y="-12.56" fill="none" rx="0" ry="0" transform="translate(100.45 225.81)"></rect><path fill="#c56e33" d="M123.53 238.35q-2.52 0-4.62-.91t-3.38-2.69q-1.28-1.78-1.32-4.4h3.04q0 1.76.86 2.89.86 1.13 2.28 1.68t3.1.55q1.82 0 3.16-.58t2.07-1.53q.73-.95.73-2.09 0-1.6-.98-2.59-.98-.99-2.9-1.61l-4.44-1.56q-3.12-1.12-4.72-2.56-1.6-1.44-1.6-4.04 0-2.92 2.25-4.76 2.25-1.84 6.39-1.84 3.84 0 6 1.77t2.48 4.75h-3.08q-.3-1.74-1.63-2.71-1.33-.97-3.77-.97-2.48 0-3.86 1.1t-1.38 2.78q0 1.38.87 2.19t2.73 1.45l5.2 1.8q2.7.9 4.27 2.52 1.57 1.62 1.57 4.2 0 2-1.07 3.62t-3.15 2.58q-2.08.96-5.1.96"></path><rect width="18.64" height="26.04" x="-9.32" y="-13.02" fill="none" rx="0" ry="0" transform="translate(124.03 225.83)"></rect><path fill="#c56e33" d="M139.67 212.75h3.12v11.08h12.44v-11.08h3.08v25.12h-3.08v-11.36h-12.44v11.36h-3.12Z"></path><rect width="18.64" height="25.12" x="-9.32" y="-12.56" fill="none" rx="0" ry="0" transform="translate(149.49 225.81)"></rect><path fill="#c56e33" d="m172.91 237.87 8.64-25.12h3.8l8.44 25.12h-3.28l-2.12-6.44h-10l-2.2 6.44Zm6.28-8.88h8.4l-4.2-12.44Z"></path><rect width="20.88" height="25.12" x="-10.44" y="-12.56" fill="none" rx="0" ry="0" transform="translate(183.85 225.81)"></rect><path fill="#c56e33" d="M207.61 238.35q-3.32 0-5.72-1.67t-3.7-4.64q-1.3-2.97-1.3-6.89 0-4.18 1.41-7.04 1.41-2.86 3.84-4.33 2.43-1.47 5.47-1.47 4.02 0 6.47 2.01t3.37 5.23l-3.36.68q-.78-2.34-2.49-3.73-1.71-1.39-3.99-1.39-1.98 0-3.65 1.13t-2.69 3.37q-1.02 2.24-1.02 5.54 0 3 .81 5.34t2.44 3.68q1.63 1.34 4.11 1.34 2.98 0 4.73-1.6 1.75-1.6 1.75-4.2h3.4q0 2.7-1.24 4.63-1.24 1.93-3.47 2.97-2.23 1.04-5.17 1.04"></path><rect width="20.6" height="26.04" x="-10.3" y="-13.02" fill="none" rx="0" ry="0" transform="translate(207.69 225.83)"></rect><path fill="#c56e33" d="M219.61 215.43v-2.68h19.56v2.68h-8.94l.7-.72v23.16h-3.12v-23.16l.7.72Z"></path><rect width="19.56" height="25.12" x="-9.78" y="-12.56" fill="none" rx="0" ry="0" transform="translate(229.89 225.81)"></rect><path fill="#c56e33" d="M243.43 237.87v-25.12h3.12v25.12Z"></path><rect width="3.12" height="25.12" x="-1.56" y="-12.56" fill="none" rx="0" ry="0" transform="translate(245.49 225.81)"></rect><path fill="#c56e33" d="m261.63 234.55 7.44-21.8h3.32l-8.96 25.12h-3.24l-8.88-25.12h3.32l7.4 21.8Z"></path><rect width="21.08" height="25.12" x="-10.54" y="-12.56" fill="none" rx="0" ry="0" transform="translate(262.35 225.81)"></rect><path fill="#c56e33" d="M277.13 237.87v-25.12h3.12v25.12Z"></path><rect width="3.12" height="25.12" x="-1.56" y="-12.56" fill="none" rx="0" ry="0" transform="translate(279.19 225.81)"></rect><path fill="#c56e33" d="M284.53 215.43v-2.68h19.56v2.68h-8.94l.7-.72v23.16h-3.12v-23.16l.7.72Z"></path><rect width="19.56" height="25.12" x="-9.78" y="-12.56" fill="none" rx="0" ry="0" transform="translate(294.81 225.81)"></rect><path fill="#c56e33" d="M304.67 212.75h3.76l7.2 12.2h-.8l7.32-12.2h3.72l-9.08 14.8v10.32h-3.16v-10.32Z"></path><rect width="21.2" height="25.12" x="-10.6" y="-12.56" fill="none" rx="0" ry="0" transform="translate(315.77 225.81)"></rect><path fill="#c56e33" d="M348.67 238.35q-3.12 0-5.58-1.44t-3.88-4.33q-1.42-2.89-1.42-7.23 0-4.4 1.42-7.29 1.42-2.89 3.88-4.32 2.46-1.43 5.58-1.43t5.58 1.44q2.46 1.44 3.88 4.34t1.42 7.26q0 4.38-1.42 7.27-1.42 2.89-3.88 4.31-2.46 1.42-5.58 1.42m0-2.88q3.54 0 5.59-2.58t2.05-7.58q0-4.9-2.05-7.55-2.05-2.65-5.59-2.65-3.5 0-5.57 2.66-2.07 2.66-2.07 7.58 0 4.98 2.07 7.55 2.07 2.57 5.57 2.57"></path><rect width="21.76" height="26.04" x="-10.88" y="-13.02" fill="none" rx="0" ry="0" transform="translate(349.17 225.83)"></rect><path fill="#c56e33" d="m372.29 234.55 7.44-21.8h3.32l-8.96 25.12h-3.24l-8.88-25.12h3.32l7.4 21.8Z"></path><rect width="21.08" height="25.12" x="-10.54" y="-12.56" fill="none" rx="0" ry="0" transform="translate(373.01 225.81)"></rect><path fill="#c56e33" d="M387.75 237.87v-25.12h15.48v2.68h-12.36v8.44h11.64v2.68h-11.64v8.6h12.36v2.72Z"></path><rect width="15.48" height="25.12" x="-7.74" y="-12.56" fill="none" rx="0" ry="0" transform="translate(395.99 225.81)"></rect><path fill="#c56e33" d="M410.27 237.87v-25.12h8.76q4.3 0 6.51 2.05t2.21 5.39q0 3.3-2.21 5.35t-6.51 2.05h-5.64v10.28Zm14.08 0-7.2-11.4h3.4l7.84 11.4Zm-10.96-12.48h5.4q2.82 0 4.29-1.39 1.47-1.39 1.47-3.61 0-2.28-1.41-3.62-1.41-1.34-4.11-1.34h-5.64Z"></path><rect width="18.12" height="25.12" x="-9.06" y="-12.56" fill="none" rx="0" ry="0" transform="translate(419.83 225.81)"></rect><path fill="#c56e33" d="M437.89 212.75v22.4h11.2v2.72h-14.32v-25.12Z"></path><rect width="14.32" height="25.12" x="-7.16" y="-12.56" fill="none" rx="0" ry="0" transform="translate(442.43 225.81)"></rect><path fill="#c56e33" d="M462.35 238.35q-3.12 0-5.58-1.44t-3.88-4.33q-1.42-2.89-1.42-7.23 0-4.4 1.42-7.29 1.42-2.89 3.88-4.32 2.46-1.43 5.58-1.43t5.58 1.44q2.46 1.44 3.88 4.34t1.42 7.26q0 4.38-1.42 7.27-1.42 2.89-3.88 4.31-2.46 1.42-5.58 1.42m0-2.88q3.54 0 5.59-2.58t2.05-7.58q0-4.9-2.05-7.55-2.05-2.65-5.59-2.65-3.5 0-5.57 2.66-2.07 2.66-2.07 7.58 0 4.98 2.07 7.55 2.07 2.57 5.57 2.57"></path><rect width="21.76" height="26.04" x="-10.88" y="-13.02" fill="none" rx="0" ry="0" transform="translate(462.85 225.83)"></rect><path fill="#c56e33" d="M479.29 237.87v-25.12h8.76q4.3 0 6.51 2.05t2.21 5.39q0 3.3-2.21 5.35t-6.51 2.05h-5.64v10.28Zm14.08 0-7.2-11.4h3.4l7.84 11.4Zm-10.96-12.48h5.4q2.82 0 4.29-1.39 1.47-1.39 1.47-3.61 0-2.28-1.41-3.62-1.41-1.34-4.11-1.34h-5.64Z"></path><rect width="18.12" height="25.12" x="-9.06" y="-12.56" fill="none" rx="0" ry="0" transform="translate(488.85 225.81)"></rect><path fill="#c56e33" d="M503.79 212.75h7.36q3.8 0 6.6 1.55t4.34 4.37q1.54 2.82 1.54 6.64 0 3.78-1.54 6.6t-4.34 4.39q-2.8 1.57-6.6 1.57h-7.36Zm3.12 2.76v19.64h4.24q2.84 0 4.89-1.28t3.16-3.51q1.11-2.23 1.11-5.05 0-2.84-1.11-5.05t-3.16-3.48q-2.05-1.27-4.89-1.27Z"></path><rect width="19.84" height="25.12" x="-9.92" y="-12.56" fill="none" rx="0" ry="0" transform="translate(514.21 225.81)"></rect><path fill="#c56e33" d="M538.23 238.35q-2.52 0-4.62-.91t-3.38-2.69q-1.28-1.78-1.32-4.4h3.04q0 1.76.86 2.89.86 1.13 2.28 1.68t3.1.55q1.82 0 3.16-.58t2.07-1.53q.73-.95.73-2.09 0-1.6-.98-2.59-.98-.99-2.9-1.61l-4.44-1.56q-3.12-1.12-4.72-2.56-1.6-1.44-1.6-4.04 0-2.92 2.25-4.76 2.25-1.84 6.39-1.84 3.84 0 6 1.77t2.48 4.75h-3.08q-.3-1.74-1.63-2.71-1.33-.97-3.77-.97-2.48 0-3.86 1.1t-1.38 2.78q0 1.38.87 2.19t2.73 1.45l5.2 1.8q2.7.9 4.27 2.52 1.57 1.62 1.57 4.2 0 2-1.07 3.62t-3.15 2.58q-2.08.96-5.1.96"></path><rect width="18.64" height="26.04" x="-9.32" y="-13.02" fill="none" rx="0" ry="0" transform="translate(538.73 225.83)"></rect><path fill="#c56e33" d="M174.35 279.3q-.2 0-.32.13-.12.14-.12.31h-.74q0-.48.34-.82.35-.35.8-.35h5.89v.73h-3.04v8.16h-.78v-8.16Z"></path><rect width="7.03" height="8.89" x="-3.52" y="-4.45" fill="none" rx="0" ry="0" transform="translate(177.19 283.51)"></rect><path fill="#c56e33" d="M183.08 287.59q-.93 0-1.65-.43-.72-.43-1.12-1.19-.41-.77-.41-1.75 0-.97.41-1.74.41-.78 1.13-1.21.73-.44 1.65-.44.91 0 1.63.44.72.43 1.13 1.2.41.77.41 1.74 0 .98-.41 1.74-.41.77-1.13 1.21-.72.43-1.64.43m.01-.7q1.08 0 1.73-.74.66-.74.66-1.94 0-.79-.3-1.4-.3-.6-.84-.94-.55-.34-1.25-.34-.72 0-1.26.34-.55.34-.85.96-.3.61-.3 1.39 0 .78.3 1.39.3.6.85.94.54.34 1.26.34"></path><rect width="6.36" height="6.76" x="-3.18" y="-3.38" fill="none" rx="0" ry="0" transform="translate(183.58 284.71)"></rect><path fill="#c56e33" d="M201.2 287.01q-.11.22-.37.37t-.58.15q-.52 0-.86-.33-.34-.32-.34-.84v-3.45q-.04-.7-.35-1.03-.31-.33-.91-.33-1.17 0-1.84 1.28v4.63h-.78v-4.37q0-.72-.32-1.13-.31-.41-.93-.41-.6 0-1.11.36-.52.36-.74.9v4.65h-.78v-4.55q0-1.03-.54-1.51l.52-.52q.22.16.43.43.2.28.31.61.35-.52.85-.8t1.12-.28q.64 0 1.1.3.46.3.7.89.36-.57.87-.88.52-.31 1.16-.31.92 0 1.47.57.55.57.55 1.49v3.47q0 .18.13.3.12.13.29.13.26 0 .38-.22Z"></path><rect width="10.45" height="6.69" x="-5.22" y="-3.35" fill="none" rx="0" ry="0" transform="translate(196.47 284.69)"></rect><path fill="#c56e33" d="M202.97 286.37q0 .18.12.3.12.13.29.13.26 0 .38-.22l.57.43q-.1.22-.36.37t-.59.15q-.52 0-.86-.33-.33-.32-.33-.84v-5.4h.78zm-.43-6.25q-.22 0-.39-.17-.16-.16-.16-.38 0-.23.16-.4.17-.16.39-.16.23 0 .39.16.17.17.17.4 0 .22-.17.38-.16.17-.39.17"></path><rect width="2.34" height="8.52" x="-1.17" y="-4.26" fill="none" rx="0" ry="0" transform="translate(203.66 283.77)"></rect><path fill="#c56e33" d="M207.75 287.54q-1.48 0-2.29-.83-.8-.82-.8-2.34 0-1.06.37-1.86.38-.81 1.06-1.26.67-.44 1.56-.44.66 0 1.19.26.54.26.84.7.31.45.31 1.01h-.73q0-.56-.44-.91-.45-.36-1.15-.36-1.02 0-1.63.78-.6.78-.6 2.09 0 1.2.59 1.83.6.63 1.72.63.48 0 .96-.14t1.09-.46l.34.55q-1.1.75-2.39.75"></path><rect width="5.48" height="6.73" x="-2.74" y="-3.37" fill="none" rx="0" ry="0" transform="translate(207.9 284.68)"></rect><path fill="#c56e33" d="M214.04 280.83q.39 0 .78.12v.73q-.37-.09-.75-.09-.66 0-1.08.32-.42.33-.74.92v4.63h-.78v-4.55q0-1.03-.55-1.51l.52-.52q.24.15.44.43.21.29.3.64.37-.6.73-.82.46-.3 1.13-.3"></path><rect width="3.9" height="6.63" x="-1.95" y="-3.31" fill="none" rx="0" ry="0" transform="translate(213.37 284.64)"></rect><path fill="#c56e33" d="M218.49 287.59q-.92 0-1.65-.43-.72-.43-1.12-1.19-.4-.77-.4-1.75 0-.97.41-1.74.41-.78 1.13-1.21.72-.44 1.64-.44.91 0 1.63.44.72.43 1.13 1.2.41.77.41 1.74 0 .98-.41 1.74-.41.77-1.13 1.21-.72.43-1.64.43m.01-.7q1.08 0 1.74-.74.65-.74.65-1.94 0-.79-.3-1.4-.29-.6-.84-.94-.55-.34-1.25-.34-.71 0-1.26.34t-.84.96q-.3.61-.3 1.39 0 .78.3 1.39.29.6.84.94.55.34 1.26.34"></path><rect width="6.35" height="6.76" x="-3.17" y="-3.38" fill="none" rx="0" ry="0" transform="translate(219 284.71)"></rect><path fill="#c56e33" d="M233 287.01q-.11.22-.37.37t-.58.15q-.52 0-.86-.33-.34-.32-.34-.84v-3.45q-.04-.7-.35-1.03-.31-.33-.91-.33-1.17 0-1.85 1.28v4.63h-.78v-4.37q0-.72-.31-1.13-.31-.41-.93-.41-.6 0-1.12.36-.51.36-.73.9v4.65h-.78v-4.55q0-1.03-.55-1.51l.52-.52q.23.16.43.43.21.28.32.61.35-.52.85-.8t1.12-.28q.64 0 1.1.3.46.3.7.89.36-.57.87-.88.52-.31 1.15-.31.93 0 1.48.57.55.57.55 1.49v3.47q0 .18.12.3.13.13.3.13.26 0 .37-.22Z"></path><rect width="10.46" height="6.69" x="-5.23" y="-3.35" fill="none" rx="0" ry="0" transform="translate(228.27 284.69)"></rect><path fill="#c56e33" d="M236.13 287.59q-.9 0-1.53-.45-.64-.46-.97-1.21-.32-.76-.32-1.67 0-1 .39-1.77t1.12-1.2q.72-.43 1.7-.43.3 0 .75.03.46.03.81.08h.78v5.37q0 .26.12.4.13.14.31.14.23 0 .38-.22l.55.44q-.19.27-.43.38-.24.11-.55.11-.46 0-.8-.31-.35-.31-.35-.75-.31.52-.82.79-.5.27-1.14.27m.01-.7q.59 0 1.06-.29.46-.28.7-.75.18-.38.18-.83v-3.41l-.86-.02-.75-.03q-1.19 0-1.78.74-.6.74-.6 1.94 0 1.1.52 1.88.53.77 1.53.77"></path><rect width="6.91" height="6.73" x="-3.46" y="-3.37" fill="none" rx="0" ry="0" transform="translate(237.26 284.73)"></rect><path fill="#c56e33" d="M247.63 287.01q-.1.22-.36.37t-.58.15q-.52 0-.86-.33-.34-.32-.34-.84v-3.27q0-1.56-1.4-1.56-.67 0-1.14.34-.46.33-.96.99v4.6h-.78v-4.56q0-1.03-.54-1.51l.52-.52q.23.14.44.44.22.3.31.65.44-.6.98-.86.54-.27 1.23-.27.95 0 1.51.49t.61 1.44v3.61q0 .18.12.3.13.13.3.13.26 0 .37-.22Z"></path><rect width="6.96" height="6.7" x="-3.48" y="-3.35" fill="none" rx="0" ry="0" transform="translate(244.65 284.68)"></rect><path fill="#c56e33" d="M250.77 287.59q-.9 0-1.54-.45-.63-.46-.96-1.21-.32-.76-.32-1.67 0-1 .39-1.77t1.11-1.2q.73-.43 1.71-.43.3 0 .75.03.46.03.81.08h.78v5.37q0 .26.12.4t.31.14q.23 0 .37-.22l.56.44q-.19.27-.43.38-.24.11-.56.11-.45 0-.8-.31-.34-.31-.34-.75-.31.52-.82.79t-1.14.27m.01-.7q.59 0 1.05-.29.47-.28.71-.75.18-.38.18-.83v-3.41l-.86-.02-.75-.03q-1.19 0-1.79.74-.59.74-.59 1.94 0 1.1.52 1.88.53.77 1.53.77"></path><rect width="6.91" height="6.73" x="-3.46" y="-3.37" fill="none" rx="0" ry="0" transform="translate(251.9 284.73)"></rect><path fill="#c56e33" d="M258.65 291.09q-.55 0-1.01-.26-.45-.26-.71-.71-.26-.45-.26-.99 0-.99.74-1.6-1-.24-1.62-1.17-.62-.93-.62-2.2 0-1 .41-1.76.4-.75 1.13-1.17.74-.41 1.7-.41.51 0 .72.04l.78.09h.74v8.02q0 .95-.56 1.53-.55.59-1.44.59m-.77-4.24q.6 0 1.17-.45.36-.29.59-.64.23-.35.23-.64v-3.48l-1.19-.07h-.42q-.65 0-1.18.35-.53.34-.83.95-.3.6-.3 1.35 0 .72.26 1.32.26.61.71.96.44.35.96.35m.83 3.48q.52 0 .83-.36.3-.36.33-1.04v-2.52q-.03.02-.19.26-.16.25-.38.43-.24.21-.75.49-.35.21-.4.25-.67.43-.67 1.27 0 .52.35.87.36.35.88.35"></path><rect width="5.48" height="10.27" x="-2.74" y="-5.13" fill="none" rx="0" ry="0" transform="translate(258.41 286.45)"></rect><path fill="#c56e33" d="M265.11 287.59q-.98 0-1.65-.4-.68-.4-1.03-1.11-.34-.71-.34-1.61 0-.88.33-1.71.33-.84 1-1.37.67-.53 1.63-.53.64 0 1.19.24.54.25.86.71.32.45.32 1.05 0 .96-.82 1.49-.82.52-2.26.51l-1.43-.01q.12 1 .67 1.52t1.53.52q.58 0 1.08-.16.5-.17.97-.5l.39.52q-.49.39-1.12.61-.63.23-1.32.23m-.6-3.4q2.13 0 2.13-1.34 0-.65-.45-.97-.45-.32-1.1-.32-.72 0-1.23.42-.5.41-.74 1.02-.25.61-.25 1.19z"></path><rect width="5.46" height="6.73" x="-2.73" y="-3.37" fill="none" rx="0" ry="0" transform="translate(265.32 284.73)"></rect><path fill="#c56e33" d="m277.57 280.96-.01 4.71v3.27q0 1-.53 1.61-.54.6-1.42.6-.55 0-.99-.26-.45-.27-.71-.74-.25-.47-.25-1.05 0-.53.2-.95.2-.42.55-.6-.87-.06-1.39-.58-.52-.51-.52-1.32v-2.82q0-1.02-.54-1.5l.52-.52q.3.19.54.59.25.41.26.87v3.05q0 .76.35 1.14.34.38 1.04.38.58 0 1.02-.25.45-.25.91-.81.1-.14.14-.25.04-.11.04-.3l.01-4.27Zm-.76 5.49q-.17.27-.32.42-.14.15-.33.31-.35.24-.78.48-.52.27-.74.59-.23.33-.23.82 0 .61.32.97t.87.36q.53 0 .85-.38.32-.37.33-1.02Z"></path><rect width="5.61" height="10.34" x="-2.81" y="-5.17" fill="none" rx="0" ry="0" transform="translate(275.26 286.48)"></rect><path fill="#c56e33" d="M282.21 287.59q-.92 0-1.64-.43-.72-.43-1.12-1.19-.41-.77-.41-1.75 0-.97.41-1.74.41-.78 1.13-1.21.72-.44 1.65-.44.91 0 1.63.44.72.43 1.13 1.2.41.77.41 1.74 0 .98-.41 1.74-.41.77-1.13 1.21-.72.43-1.65.43m.02-.7q1.08 0 1.73-.74.66-.74.66-1.94 0-.79-.3-1.4-.3-.6-.84-.94-.55-.34-1.25-.34-.72 0-1.26.34-.55.34-.85.96-.3.61-.3 1.39 0 .78.3 1.39.3.6.85.94.54.34 1.26.34"></path><rect width="6.36" height="6.76" x="-3.18" y="-3.38" fill="none" rx="0" ry="0" transform="translate(282.72 284.71)"></rect><path fill="#c56e33" d="M293.19 287.1q-.2.27-.44.38-.24.11-.55.11-.46 0-.8-.31-.35-.31-.35-.75-.89 1.04-2.17 1.04-.97 0-1.52-.48-.54-.47-.6-1.44v-2.78q0-1.02-.54-1.51l.52-.52q.31.2.56.62.24.41.24.89v2.97q0 .74.34 1.14.33.4 1.08.4.72 0 1.23-.31t.85-.99l.01-4.6h.78l-.01 5.38q0 .26.12.4.13.14.31.14.23 0 .38-.22Z"></path><rect width="6.97" height="6.75" x="-3.48" y="-3.38" fill="none" rx="0" ry="0" transform="translate(290.2 284.71)"></rect><path fill="#c56e33" d="M296.75 280.83q.39 0 .78.12v.73q-.38-.09-.76-.09-.66 0-1.07.32-.42.33-.75.92v4.63h-.78v-4.55q0-1.03-.54-1.51l.52-.52q.23.15.44.43.21.29.3.64.36-.6.73-.82.45-.3 1.13-.3"></path><rect width="3.9" height="6.63" x="-1.95" y="-3.31" fill="none" rx="0" ry="0" transform="translate(296.08 284.64)"></rect><path fill="#c56e33" d="M312.18 287.01q-.1.22-.36.37t-.59.15q-.52 0-.86-.33-.34-.32-.34-.84v-3.45q-.03-.7-.35-1.03-.31-.33-.91-.33-1.17 0-1.84 1.28v4.63h-.78v-4.37q0-.72-.31-1.13-.32-.41-.94-.41-.6 0-1.11.36-.52.36-.74.9v4.65h-.78v-4.55q0-1.03-.54-1.51l.52-.52q.22.16.43.43.2.28.31.61.35-.52.85-.8t1.12-.28q.64 0 1.1.3.46.3.7.89.36-.57.88-.88.51-.31 1.15-.31.92 0 1.47.57.55.57.55 1.49v3.47q0 .18.13.3.12.13.29.13.26 0 .38-.22Z"></path><rect width="10.45" height="6.69" x="-5.22" y="-3.35" fill="none" rx="0" ry="0" transform="translate(307.45 284.69)"></rect><path fill="#c56e33" d="M313.95 286.37q0 .18.12.3.12.13.29.13.26 0 .38-.22l.57.43q-.1.22-.36.37t-.59.15q-.52 0-.85-.33-.34-.32-.34-.84v-5.4h.78zm-.43-6.25q-.22 0-.39-.17-.16-.16-.16-.38 0-.23.16-.4.17-.16.39-.16.23 0 .39.16.17.17.17.4 0 .22-.17.38-.16.17-.39.17"></path><rect width="2.34" height="8.52" x="-1.17" y="-4.26" fill="none" rx="0" ry="0" transform="translate(314.64 283.77)"></rect><path fill="#c56e33" d="M318.73 287.54q-1.48 0-2.29-.83-.8-.82-.8-2.34 0-1.06.37-1.86.38-.81 1.06-1.26.67-.44 1.56-.44.66 0 1.19.26.54.26.84.7.31.45.31 1.01h-.73q0-.56-.44-.91-.44-.36-1.15-.36-1.02 0-1.63.78-.6.78-.6 2.09 0 1.2.6 1.83.59.63 1.71.63.48 0 .96-.14t1.1-.46l.33.55q-1.1.75-2.39.75"></path><rect width="5.48" height="6.73" x="-2.74" y="-3.37" fill="none" rx="0" ry="0" transform="translate(318.88 284.68)"></rect><path fill="#c56e33" d="M325.02 280.83q.39 0 .78.12v.73q-.37-.09-.75-.09-.66 0-1.08.32-.42.33-.74.92v4.63h-.78v-4.55q0-1.03-.55-1.51l.52-.52q.24.15.45.43.2.29.29.64.37-.6.73-.82.46-.3 1.13-.3"></path><rect width="3.9" height="6.63" x="-1.95" y="-3.31" fill="none" rx="0" ry="0" transform="translate(324.35 284.64)"></rect><path fill="#c56e33" d="M329.47 287.59q-.92 0-1.65-.43-.72-.43-1.12-1.19-.4-.77-.4-1.75 0-.97.41-1.74.41-.78 1.13-1.21.72-.44 1.64-.44.91 0 1.63.44.73.43 1.13 1.2.41.77.41 1.74 0 .98-.41 1.74-.4.77-1.13 1.21-.72.43-1.64.43m.01-.7q1.08 0 1.74-.74.65-.74.65-1.94 0-.79-.29-1.4-.3-.6-.85-.94-.55-.34-1.25-.34-.71 0-1.26.34-.54.34-.84.96-.3.61-.3 1.39 0 .78.3 1.39.3.6.84.94.55.34 1.26.34"></path><rect width="6.35" height="6.76" x="-3.17" y="-3.38" fill="none" rx="0" ry="0" transform="translate(329.98 284.71)"></rect><path fill="#c56e33" d="M343.98 287.01q-.11.22-.37.37t-.58.15q-.52 0-.86-.33-.34-.32-.34-.84v-3.45q-.04-.7-.35-1.03-.31-.33-.91-.33-1.17 0-1.84 1.28v4.63h-.78v-4.37q0-.72-.32-1.13-.31-.41-.93-.41-.6 0-1.11.36-.52.36-.74.9v4.65h-.78v-4.55q0-1.03-.54-1.51l.52-.52q.22.16.42.43.21.28.32.61.35-.52.85-.8t1.12-.28q.64 0 1.1.3.46.3.7.89.36-.57.87-.88.52-.31 1.15-.31.93 0 1.48.57.55.57.55 1.49v3.47q0 .18.13.3.12.13.29.13.26 0 .38-.22Z"></path><rect width="10.45" height="6.69" x="-5.22" y="-3.35" fill="none" rx="0" ry="0" transform="translate(339.25 284.69)"></rect><path fill="#c56e33" d="M347.11 287.59q-.9 0-1.53-.45-.64-.46-.97-1.21-.32-.76-.32-1.67 0-1 .39-1.77t1.12-1.2q.73-.43 1.7-.43.3 0 .75.03.46.03.81.08h.78v5.37q0 .26.12.4.13.14.31.14.23 0 .38-.22l.56.44q-.2.27-.44.38-.24.11-.55.11-.46 0-.8-.31-.35-.31-.35-.75-.31.52-.82.79-.5.27-1.14.27m.01-.7q.59 0 1.06-.29.46-.28.7-.75.18-.38.18-.83v-3.41l-.86-.02-.75-.03q-1.18 0-1.78.74-.6.74-.6 1.94 0 1.1.53 1.88.52.77 1.52.77"></path><rect width="6.92" height="6.73" x="-3.46" y="-3.37" fill="none" rx="0" ry="0" transform="translate(348.25 284.73)"></rect><path fill="#c56e33" d="M358.62 287.01q-.11.22-.37.37t-.58.15q-.52 0-.86-.33-.34-.32-.34-.84v-3.27q0-1.56-1.4-1.56-.67 0-1.13.34-.47.33-.97.99v4.6h-.78v-4.56q0-1.03-.54-1.51l.52-.52q.23.14.45.44.21.3.3.65.44-.6.98-.86.54-.27 1.23-.27.95 0 1.51.49t.61 1.44v3.61q0 .18.12.3.13.13.3.13.26 0 .37-.22Z"></path><rect width="6.97" height="6.7" x="-3.48" y="-3.35" fill="none" rx="0" ry="0" transform="translate(355.63 284.68)"></rect><path fill="#c56e33" d="M361.75 287.59q-.9 0-1.54-.45-.63-.46-.96-1.21-.32-.76-.32-1.67 0-1 .39-1.77t1.12-1.2q.72-.43 1.7-.43.3 0 .75.03.46.03.81.08h.78v5.37q0 .26.12.4.13.14.31.14.23 0 .37-.22l.56.44q-.19.27-.43.38-.24.11-.55.11-.46 0-.8-.31-.35-.31-.35-.75-.31.52-.82.79-.5.27-1.14.27m.01-.7q.59 0 1.05-.29.47-.28.71-.75.18-.38.18-.83v-3.41l-.86-.02-.75-.03q-1.19 0-1.78.74-.6.74-.6 1.94 0 1.1.52 1.88.53.77 1.53.77"></path><rect width="6.91" height="6.73" x="-3.46" y="-3.37" fill="none" rx="0" ry="0" transform="translate(362.88 284.73)"></rect><path fill="#c56e33" d="M369.63 291.09q-.55 0-1-.26-.46-.26-.72-.71-.26-.45-.26-.99 0-.99.74-1.6-1-.24-1.62-1.17-.61-.93-.61-2.2 0-1 .4-1.76.4-.75 1.14-1.17.73-.41 1.69-.41.51 0 .72.04l.78.09h.74v8.02q0 .95-.55 1.53-.56.59-1.45.59m-.77-4.24q.6 0 1.17-.45.36-.29.59-.64.23-.35.23-.64v-3.48l-1.18-.07h-.43q-.65 0-1.18.35-.53.34-.83.95-.29.6-.29 1.35 0 .72.26 1.32.26.61.7.96.44.35.96.35m.83 3.48q.52 0 .83-.36.3-.36.33-1.04v-2.52q-.03.02-.19.26-.16.25-.38.43-.24.21-.74.49-.36.21-.41.25-.67.43-.67 1.27 0 .52.35.87.36.35.88.35"></path><rect width="5.47" height="10.27" x="-2.73" y="-5.13" fill="none" rx="0" ry="0" transform="translate(369.4 286.45)"></rect><path fill="#c56e33" d="M376.09 287.59q-.98 0-1.65-.4-.68-.4-1.02-1.11-.35-.71-.35-1.61 0-.88.33-1.71.33-.84 1-1.37.67-.53 1.64-.53.63 0 1.18.24.54.25.86.71.32.45.32 1.05 0 .96-.82 1.49-.82.52-2.26.51l-1.43-.01q.12 1 .67 1.52t1.53.52q.58 0 1.08-.16.5-.17.97-.5l.39.52q-.49.39-1.12.61-.63.23-1.32.23m-.6-3.4q2.13 0 2.13-1.34 0-.65-.45-.97-.45-.32-1.1-.32-.72 0-1.22.42-.5.41-.75 1.02-.25.61-.25 1.19z"></path><rect width="5.46" height="6.73" x="-2.73" y="-3.37" fill="none" rx="0" ry="0" transform="translate(376.3 284.73)"></rect><path fill="#c56e33" fill-rule="evenodd" d="M225.511 2.85h.438c6.896 14.986 14.996 28.768 21.882 43.765 11.636-.912 25.219.127 36.762-.876a1171.982 1171.982 0 0 0 21.444-42.888h.438c13.196 31.313 39.865 60.534 42.013 102.407.44 8.563-1.07 15.07-3.063 22.32-7.322.558-16.888-1.132-22.758.873 1.888 2.364 6.244 1.315 10.068 1.315h11.377c-1.528 4.305-3.975 7.695-7.003 10.503-5.541-.379-11.498-4.724-16.192-3.065 3.39 3.029 9.622 3.217 14.442 4.816-2.907 2.637-6.277 4.81-10.066 6.565-3.508-1.16-5.368-3.968-9.19-4.814-1.001 3.406 4.365 3.645 6.125 5.689-15.184 8.01-35.026 2.61-43.764-9.19-1.448-1.957-1.878-4.311-2.624-6.128-4.442 6.552-10.296 11.45-18.819 15.757-11.378 5.746-21.32 7.923-34.573 2.187 4.013-3.572 10.018-5.152 13.567-9.19-5.341-.8-11.251 6.378-17.068 8.316-5.042-2.106-9.93-4.367-14.442-7.002 7.602-4.068 19.08-4.261 26.258-8.755-1.335-2.035-4.45-.145-6.565.438-6.493 1.79-15.06 4.293-21.882 6.127-5.554-3.198-9.248-8.257-12.691-13.567 11.298-1.59 27.24 1.001 38.512-1.313-1.081-2.381-6.058-1.313-9.19-1.313h-30.635c-2.104-4.46-3.255-9.874-4.377-15.317V97.818c6.587-38.928 27.668-63.36 41.576-94.967m-23.195 51.642c9.918-6.129 23.263-8.831 38.95-9.19-5.029-13.206-10.363-26.11-16.63-38.075-7.385 15.81-15.177 31.213-22.32 47.265m87.528-9.19c15.889.012 30.225 3.911 39.388 9.19-8.175-15.31-14.907-32.064-23.195-47.265-5.494 12.307-12.004 25.92-16.193 38.075m-56.018 57.768c8.664-.257 7.482-30.26-1.312-27.571-6.924 2.117-6.55 27.804 1.312 27.571m73.962-3.939c8.745-.383 7.367-26.781-1.75-23.632-6.48 2.237-6.748 24.004 1.75 23.632m-31.51 33.26c4.897-9.691 10.753-18.424 15.756-28.008-10.359.292-21.882-.582-31.51.438 5.71 8.73 10.066 18.818 15.754 27.57"></path><path fill="#c56e33" fill-rule="evenodd" d="M260.523 159.088h-16.63c9.542-2.387 17.775-6.33 24.946-11.814 1.51-1.157 5.801-5.746 6.565-5.69-.047-.003 4.415 4.46 4.814 4.814 5.897 5.214 11.251 8.77 18.819 10.941-12.316 1.105-25.993.852-38.515 1.749"></path><path fill="#c56e33" d="M113.45 148.56v-24.99h10.94v3.33h-7.17v6.9H123v3.4h-5.78v7.99h8.3v3.37Z"></path><rect width="12.07" height="24.99" x="-6.04" y="-12.49" fill="none" rx="0" ry="0" transform="translate(119.98 136.56)"></rect><path fill="#c56e33" d="M135 148.9q-1.43 0-2.82-.36t-2.48-.88q-1.09-.53-1.63-1.07l1.8-3.23q.37.3 1.17.79.8.5 1.85.87 1.06.38 2.11.38 1.74 0 2.91-.82 1.17-.82 1.17-2.38 0-1.29-.68-2.14-.68-.85-1.78-1.5-1.11-.64-2.38-1.24-1.28-.59-2.43-1.34-1.33-.89-2.32-2.35-.98-1.46-.98-3.77 0-2.28 1.03-3.74 1.04-1.46 2.76-2.2 1.72-.73 3.76-.73 1.63 0 2.78.34 1.16.34 1.94.82.78.48 1.23.85l-1.81 3.09q-.57-.61-1.73-1.14-1.16-.52-2.58-.52-1.67 0-2.66.76-.98.77-.98 2.26 0 1.33.88 2.26.89.94 2.26 1.7 1.38.77 2.84 1.55t2.59 1.84q.91.81 1.56 2.04.65 1.22.65 2.75 0 2.31-1.08 3.91-1.07 1.6-2.87 2.4-1.8.8-4.08.8"></path><rect width="14.96" height="25.71" x="-7.48" y="-12.86" fill="none" rx="0" ry="0" transform="translate(136.05 136.54)"></rect><path fill="#c56e33" d="M150.85 148.56V126.9h-6.4v-3.33h16.63v3.33h-6.46v21.66Z"></path><rect width="16.63" height="24.99" x="-8.31" y="-12.49" fill="none" rx="0" ry="0" transform="translate(153.26 136.56)"></rect><path fill="#c56e33" d="M162.58 148.9q-1.02 0-1.74-.7-.71-.7-.71-1.72 0-1.05.69-1.75.7-.69 1.76-.69 1.08 0 1.76.69.68.7.68 1.75 0 1.02-.69 1.72-.7.7-1.75.7"></path><rect width="4.89" height="4.86" x="-2.44" y="-2.43" fill="none" rx="0" ry="0" transform="translate(163.07 146.97)"></rect><path fill="#c56e33" d="m372.58 146.07 6.92-8.65q.56-.73 1.27-1.78t1.26-2.19q.55-1.13.55-2.11 0-1.54-.83-2.38-.83-.84-2.48-.84-1.15 0-1.93.5-.78.51-1.27 1.18-.49.67-.77 1.2l-2.61-1.4q.53-1 1.39-2.03.85-1.02 2.14-1.72t3.14-.7q2.12 0 3.55.76 1.43.75 2.14 2.07.72 1.32.72 3 0 1.79-.88 3.66-.89 1.88-2.48 3.84l-3.81 4.82h7.98v2.77Z"></path><rect width="14" height="20.92" x="-7" y="-10.46" fill="none" rx="0" ry="0" transform="translate(380.08 136.11)"></rect><path fill="#c56e33" d="M397.05 146.49q-2.04 0-3.47-.84-1.43-.84-2.32-2.31-.9-1.47-1.31-3.42-.4-1.94-.4-4.13 0-2.27.39-4.2.39-1.93 1.26-3.37.87-1.44 2.31-2.26 1.44-.81 3.54-.81 2.8 0 4.43 1.37 1.62 1.38 2.33 3.77.72 2.39.72 5.5 0 3-.74 5.43-.75 2.44-2.38 3.85-1.64 1.42-4.36 1.42m0-2.86q1.26 0 2.06-.67t1.23-1.82q.44-1.15.6-2.53.17-1.39.17-2.82 0-1.57-.17-2.97-.16-1.4-.6-2.49-.43-1.09-1.23-1.72-.8-.63-2.06-.63t-2.07.63q-.81.63-1.25 1.72-.43 1.09-.6 2.49-.17 1.4-.17 2.97 0 1.43.17 2.82.17 1.38.6 2.52.44 1.13 1.25 1.82.81.68 2.07.68"></path><rect width="14.98" height="21.34" x="-7.49" y="-10.67" fill="none" rx="0" ry="0" transform="translate(397.54 136.32)"></rect><path fill="#c56e33" d="m407.02 146.07 6.92-8.65q.56-.73 1.27-1.78t1.26-2.19q.55-1.13.55-2.11 0-1.54-.83-2.38-.83-.84-2.48-.84-1.15 0-1.93.5-.78.51-1.27 1.18-.49.67-.77 1.2l-2.61-1.4q.53-1 1.39-2.03.85-1.02 2.14-1.72t3.14-.7q2.12 0 3.55.76 1.43.75 2.14 2.07.72 1.32.72 3 0 1.79-.88 3.66-.89 1.88-2.48 3.84l-3.81 4.82h7.98v2.77Z"></path><rect width="14" height="20.92" x="-7" y="-10.46" fill="none" rx="0" ry="0" transform="translate(414.52 136.11)"></rect><path fill="#c56e33" d="M430.32 146.49q-1.85 0-3.41-.48-1.55-.47-2.61-1.4l1.42-2.63q.26.2.89.57.63.38 1.56.69.94.31 2.06.31 1.88 0 3.11-1.07 1.23-1.06 1.23-2.94 0-1.03-.43-1.94-.44-.91-1.46-1.49-1.02-.57-2.78-.57-.84 0-1.75.1t-1.67.26q-.76.17-1.15.4l.42-10.81h10.56v2.74h-7.51l-.28 4.87q.4-.11.97-.16.57-.06 1.39-.06 3.24 0 5.11 1.69 1.86 1.7 1.86 4.67 0 2.12-.88 3.76-.89 1.64-2.57 2.56-1.68.93-4.08.93"></path><rect width="13.55" height="21" x="-6.78" y="-10.5" fill="none" rx="0" ry="0" transform="translate(431.57 136.49)"></rect></svg></svg>